<svg width="118" height="32" viewBox="0 0 118 32" fill="none" xmlns="http://www.w3.org/2000/svg">
<path d="M24.8819 20.2906C24.5857 17.9703 23.5983 15.798 22.1666 14.0701L22.9072 8.49144C23.154 6.31921 22.5122 4.14698 21.0311 2.56718C19.5501 0.987377 17.5259 0 15.3537 0H9.62693C7.4547 0 5.38121 0.938008 3.94951 2.56718C2.51781 4.19635 1.82665 6.36858 2.07349 8.49144L2.81402 14.0208C1.03675 16.2424 0 19.007 0 21.8704C0 24.5363 0.83927 27.1035 2.41907 29.2757C3.6533 30.9049 5.62805 31.8923 7.70154 31.8923H17.2297C19.3032 31.8923 21.278 30.9049 22.4628 29.3251C24.4376 26.7579 25.2769 23.5489 24.8819 20.2906ZM7.6028 5.62805C8.39271 4.73941 9.47882 4.24572 10.6143 4.24572H14.317C15.5018 4.24572 16.5879 4.73941 17.3285 5.62805C18.1184 6.51669 18.464 7.65217 18.3158 8.78766L18.0196 10.7624C16.736 10.1206 15.3043 9.6763 13.8233 9.52819C11.3548 9.23198 8.93576 9.6763 6.8129 10.7624L6.56606 8.83703C6.46732 7.65217 6.86227 6.46732 7.6028 5.62805ZM21.7223 28.7327C20.6856 30.115 19.0564 30.9049 17.2791 30.9049H7.70154C5.92426 30.9049 4.24572 30.0656 3.20898 28.6833C1.72791 26.7086 0.987377 24.3388 0.987377 21.8704C0.987377 19.1057 2.02412 16.3905 3.8014 14.317C3.94951 14.1195 4.09762 13.9714 4.29509 13.7739C4.34446 13.7245 4.39383 13.6752 4.4432 13.6258C4.5913 13.4777 4.78878 13.3296 4.93689 13.1815C5.08499 13.0334 5.2331 12.9346 5.43058 12.7865C5.52931 12.6878 5.67742 12.5891 5.77616 12.5397C5.92426 12.441 6.07237 12.3422 6.17111 12.2435C6.31921 12.1447 6.46732 12.046 6.6648 11.9473C8.39271 10.9105 10.4168 10.3675 12.4903 10.3675C12.9346 10.3675 13.379 10.3675 13.8233 10.4168C15.4525 10.6143 16.9335 11.108 18.3158 11.8979C18.4146 11.9473 18.5133 11.9966 18.5627 12.046C19.5501 12.6384 20.4387 13.4283 21.2286 14.317C22.6603 15.9955 23.6477 18.069 23.9439 20.34C24.2401 23.4008 23.4996 26.363 21.7223 28.7327Z" fill="black"/>
<path d="M12.4903 13.9714C8.54077 13.9714 5.38116 17.1804 5.38116 21.0805C5.38116 25.03 8.59013 28.1896 12.4903 28.1896C16.3904 28.1896 19.5994 24.9807 19.5994 21.0805C19.5994 17.1804 16.3904 13.9714 12.4903 13.9714Z" fill="black"/>
<path d="M21.5674 32V14.2272H26.1789V16.4825H26.2798C26.4482 16.0449 26.695 15.6438 27.0204 15.2791C27.3458 14.9088 27.7497 14.6143 28.2322 14.3955C28.7146 14.1711 29.2756 14.0589 29.9152 14.0589C30.7679 14.0589 31.5786 14.2861 32.3472 14.7405C33.1214 15.1949 33.7497 15.9102 34.2322 16.8864C34.7202 17.8626 34.9643 19.1304 34.9643 20.69C34.9643 22.1823 34.7315 23.4194 34.2658 24.4011C33.8058 25.3829 33.1887 26.115 32.4145 26.5975C31.6459 27.0799 30.8016 27.3212 29.8815 27.3212C29.2756 27.3212 28.7343 27.223 28.2574 27.0266C27.7862 26.8247 27.3822 26.5526 27.0456 26.2104C26.7146 25.8626 26.4594 25.4698 26.2798 25.0323H26.2125V32H21.5674ZM26.1115 20.69C26.1115 21.3184 26.1929 21.8626 26.3556 22.3226C26.5239 22.777 26.7595 23.1304 27.0625 23.3829C27.371 23.6297 27.7385 23.7532 28.1648 23.7532C28.5912 23.7532 28.9531 23.6325 29.2504 23.3913C29.5533 23.1445 29.7834 22.7938 29.9404 22.3394C30.1031 21.8794 30.1845 21.3296 30.1845 20.69C30.1845 20.0505 30.1031 19.5035 29.9404 19.0491C29.7834 18.5891 29.5533 18.2384 29.2504 17.9972C28.9531 17.7503 28.5912 17.6269 28.1648 17.6269C27.7385 17.6269 27.371 17.7503 27.0625 17.9972C26.7595 18.2384 26.5239 18.5891 26.3556 19.0491C26.1929 19.5035 26.1115 20.0505 26.1115 20.69Z" fill="black"/>
<path d="M42.1559 27.3885C40.7759 27.3885 39.5865 27.1248 38.5879 26.5975C37.5949 26.0645 36.8292 25.3015 36.2906 24.3086C35.7576 23.31 35.4912 22.115 35.4912 20.7237C35.4912 19.3885 35.7604 18.2216 36.299 17.223C36.8376 16.2244 37.5977 15.4474 38.5795 14.892C39.5613 14.3366 40.7198 14.0589 42.055 14.0589C43.0311 14.0589 43.9147 14.2104 44.7057 14.5133C45.4968 14.8163 46.1728 15.2567 46.7338 15.8345C47.2948 16.4067 47.7268 17.1024 48.0297 17.9215C48.3327 18.7405 48.4841 19.6634 48.4841 20.69V21.7672H36.9386V19.209H44.2092C44.2036 18.8387 44.1083 18.5133 43.9231 18.2328C43.7436 17.9467 43.4996 17.7251 43.191 17.568C42.8881 17.4053 42.543 17.324 42.1559 17.324C41.7801 17.324 41.4351 17.4053 41.1209 17.568C40.8067 17.7251 40.5543 17.9439 40.3635 18.2244C40.1784 18.5049 40.0802 18.8331 40.069 19.209V21.9691C40.069 22.3843 40.156 22.7546 40.3299 23.0799C40.5038 23.4053 40.7534 23.6606 41.0788 23.8457C41.4042 24.0309 41.7969 24.1234 42.2569 24.1234C42.5767 24.1234 42.8684 24.0785 43.1321 23.9888C43.4014 23.899 43.6314 23.77 43.8221 23.6017C44.0129 23.4278 44.1531 23.2202 44.2429 22.979H48.4841C48.3383 23.8766 47.9933 24.6564 47.4491 25.3184C46.9049 25.9748 46.184 26.4853 45.2864 26.8499C44.3944 27.209 43.3509 27.3885 42.1559 27.3885Z" fill="black"/>
<path d="M54.0769 19.8822V27.1529H49.4318V14.2272H53.8413V16.6844H53.9759C54.2565 15.8654 54.7501 15.223 55.457 14.7574C56.1695 14.2917 56.9998 14.0589 57.9479 14.0589C58.8623 14.0589 59.6562 14.2693 60.3294 14.69C61.0082 15.1052 61.5327 15.6774 61.903 16.4067C62.2789 17.136 62.464 17.9691 62.4584 18.906V27.1529H57.8133V19.8822C57.8189 19.2426 57.6562 18.7405 57.3252 18.3759C56.9998 18.0112 56.5454 17.8289 55.9619 17.8289C55.5804 17.8289 55.2466 17.913 54.9605 18.0813C54.68 18.244 54.464 18.4797 54.3126 18.7882C54.1611 19.0912 54.0825 19.4558 54.0769 19.8822Z" fill="black"/>
<path d="M74.9285 15.6073C74.8556 15.31 74.7406 15.0491 74.5835 14.8247C74.4264 14.5947 74.23 14.4011 73.9944 14.244C73.7644 14.0813 73.4951 13.9607 73.1866 13.8822C72.8836 13.798 72.5498 13.756 72.1852 13.756C71.3997 13.756 70.7293 13.9439 70.1739 14.3198C69.6241 14.6957 69.2034 15.237 68.9117 15.9439C68.6255 16.6508 68.4825 17.5035 68.4825 18.5021C68.4825 19.5119 68.6199 20.3759 68.8948 21.094C69.1697 21.8121 69.5793 22.3618 70.1234 22.7433C70.6676 23.1248 71.3436 23.3156 72.1515 23.3156C72.864 23.3156 73.4558 23.2118 73.9271 23.0042C74.4039 22.7966 74.7602 22.5021 74.9958 22.1206C75.2314 21.7391 75.3492 21.2903 75.3492 20.7742L76.1571 20.8583H72.2188V17.5259H79.8598V19.9158C79.8598 21.4867 79.526 22.8303 78.8584 23.9467C78.1964 25.0575 77.2819 25.9102 76.115 26.5049C74.9537 27.094 73.6213 27.3885 72.1178 27.3885C70.4404 27.3885 68.9678 27.0323 67.6999 26.3198C66.432 25.6073 65.4418 24.5919 64.7293 23.2735C64.0225 21.9551 63.669 20.3871 63.669 18.5694C63.669 17.1445 63.885 15.8822 64.317 14.7826C64.7546 13.683 65.3605 12.7546 66.1347 11.9972C66.9088 11.2342 67.8037 10.6592 68.8191 10.2721C69.8345 9.87938 70.9229 9.68303 72.0842 9.68303C73.1052 9.68303 74.0533 9.82889 74.9285 10.1206C75.8093 10.4067 76.5863 10.8163 77.2595 11.3492C77.9383 11.8766 78.4853 12.5021 78.9004 13.2258C79.3156 13.9495 79.568 14.7433 79.6578 15.6073H74.9285Z" fill="black"/>
<path d="M79.5767 9.91865H84.7941L88.1601 16.9201H88.2948L91.6608 9.91865H96.8782L90.55 21.7335V27.1529H85.9049V21.7335L79.5767 9.91865Z" fill="black"/>
<path d="M97.4556 9.91865H103.279L107.284 19.6802H107.486L111.492 9.91865H117.315V27.1529H112.737V17.1893H112.603L108.766 27.0182H106.005L102.168 17.122H102.033V27.1529H97.4556V9.91865Z" fill="black"/>
</svg>
