<svg width="263" height="68" viewBox="0 0 263 68" fill="none" xmlns="http://www.w3.org/2000/svg">
<path d="M64.6862 67.8182V31.8182H74.0271V36.3864H74.2316C74.5725 35.5 75.0725 34.6875 75.7316 33.9489C76.3907 33.1989 77.2089 32.6023 78.1862 32.1591C79.1634 31.7045 80.2998 31.4773 81.5953 31.4773C83.3225 31.4773 84.9646 31.9375 86.5214 32.858C88.0896 33.7784 89.3623 35.2273 90.3396 37.2045C91.3282 39.1818 91.8225 41.75 91.8225 44.9091C91.8225 47.9318 91.3509 50.4375 90.4078 52.4261C89.4759 54.4148 88.2259 55.8977 86.6578 56.875C85.1009 57.8523 83.3907 58.3409 81.5271 58.3409C80.2998 58.3409 79.2032 58.142 78.2373 57.7443C77.2828 57.3352 76.4646 56.7841 75.7828 56.0909C75.1123 55.3864 74.5953 54.5909 74.2316 53.7045H74.0953V67.8182H64.6862ZM73.8907 44.9091C73.8907 46.1818 74.0555 47.2841 74.385 48.2159C74.7259 49.1364 75.2032 49.8523 75.8168 50.3636C76.4418 50.8636 77.1862 51.1136 78.0498 51.1136C78.9134 51.1136 79.6464 50.8693 80.2487 50.3807C80.8623 49.8807 81.3282 49.1705 81.6464 48.25C81.9759 47.3182 82.1407 46.2045 82.1407 44.9091C82.1407 43.6136 81.9759 42.5057 81.6464 41.5852C81.3282 40.6534 80.8623 39.9432 80.2487 39.4545C79.6464 38.9545 78.9134 38.7045 78.0498 38.7045C77.1862 38.7045 76.4418 38.9545 75.8168 39.4545C75.2032 39.9432 74.7259 40.6534 74.385 41.5852C74.0555 42.5057 73.8907 43.6136 73.8907 44.9091Z" fill="black"/>
<path d="M107.11 58.4773C104.314 58.4773 101.905 57.9432 99.8825 56.875C97.8711 55.7955 96.32 54.25 95.2291 52.2386C94.1495 50.2159 93.6097 47.7955 93.6097 44.9773C93.6097 42.2727 94.1552 39.9091 95.2461 37.8864C96.337 35.8636 97.8768 34.2898 99.8654 33.1648C101.854 32.0398 104.201 31.4773 106.905 31.4773C108.882 31.4773 110.672 31.7841 112.275 32.3977C113.877 33.0114 115.246 33.9034 116.382 35.0739C117.519 36.233 118.394 37.642 119.007 39.3011C119.621 40.9602 119.928 42.8295 119.928 44.9091V47.0909H96.5416V41.9091H111.269C111.257 41.1591 111.064 40.5 110.689 39.9318C110.326 39.3523 109.831 38.9034 109.206 38.5852C108.593 38.2557 107.894 38.0909 107.11 38.0909C106.348 38.0909 105.65 38.2557 105.013 38.5852C104.377 38.9034 103.865 39.3466 103.479 39.9148C103.104 40.483 102.905 41.1477 102.882 41.9091V47.5C102.882 48.3409 103.059 49.0909 103.411 49.75C103.763 50.4091 104.269 50.9261 104.928 51.3011C105.587 51.6761 106.382 51.8636 107.314 51.8636C107.962 51.8636 108.553 51.7727 109.087 51.5909C109.632 51.4091 110.098 51.1477 110.485 50.8068C110.871 50.4545 111.155 50.0341 111.337 49.5455H119.928C119.632 51.3636 118.934 52.9432 117.831 54.2841C116.729 55.6136 115.269 56.6477 113.451 57.3864C111.644 58.1136 109.53 58.4773 107.11 58.4773Z" fill="black"/>
<path d="M131.977 43.2727V58H122.567V31.8182H131.499V36.7955H131.772C132.34 35.1364 133.34 33.8352 134.772 32.892C136.215 31.9489 137.897 31.4773 139.817 31.4773C141.67 31.4773 143.278 31.9034 144.641 32.7557C146.016 33.5966 147.079 34.7557 147.829 36.233C148.59 37.7102 148.965 39.3977 148.954 41.2955V58H139.545V43.2727C139.556 41.9773 139.227 40.9602 138.556 40.2216C137.897 39.483 136.977 39.1136 135.795 39.1136C135.022 39.1136 134.346 39.2841 133.766 39.625C133.198 39.9545 132.761 40.4318 132.454 41.0568C132.147 41.6705 131.988 42.4091 131.977 43.2727Z" fill="black"/>
<path d="M174.933 34.6136C174.785 34.0114 174.552 33.483 174.234 33.0284C173.916 32.5625 173.518 32.1705 173.041 31.8523C172.575 31.5227 172.029 31.2784 171.404 31.1193C170.791 30.9489 170.115 30.8636 169.376 30.8636C167.785 30.8636 166.427 31.2443 165.302 32.0057C164.188 32.767 163.336 33.8636 162.745 35.2955C162.166 36.7273 161.876 38.4545 161.876 40.4773C161.876 42.5227 162.154 44.2727 162.711 45.7273C163.268 47.1818 164.098 48.2955 165.2 49.0682C166.302 49.8409 167.671 50.2273 169.308 50.2273C170.751 50.2273 171.95 50.017 172.904 49.5966C173.87 49.1761 174.592 48.5795 175.069 47.8068C175.546 47.0341 175.785 46.125 175.785 45.0795L177.421 45.25H169.444V38.5H184.921V43.3409C184.921 46.5227 184.245 49.2443 182.893 51.5057C181.552 53.7557 179.7 55.483 177.336 56.6875C174.984 57.8807 172.285 58.4773 169.24 58.4773C165.842 58.4773 162.859 57.7557 160.291 56.3125C157.723 54.8693 155.717 52.8125 154.274 50.142C152.842 47.4716 152.126 44.2955 152.126 40.6136C152.126 37.7273 152.563 35.1705 153.438 32.9432C154.325 30.7159 155.552 28.8352 157.12 27.3011C158.688 25.7557 160.501 24.5909 162.558 23.8068C164.615 23.0114 166.819 22.6136 169.171 22.6136C171.24 22.6136 173.16 22.9091 174.933 23.5C176.717 24.0795 178.291 24.9091 179.654 25.9886C181.029 27.0568 182.137 28.3239 182.978 29.7898C183.819 31.2557 184.33 32.8636 184.512 34.6136H174.933Z" fill="black"/>
<path d="M185.068 23.0909H195.636L202.454 37.2727H202.727L209.545 23.0909H220.113L207.295 47.0227V58H197.886V47.0227L185.068 23.0909Z" fill="black"/>
<path d="M222.003 23.0909H233.798L241.912 42.8636H242.321L250.435 23.0909H262.23V58H252.957V37.8182H252.685L244.912 57.7273H239.321L231.548 37.6818H231.276V58H222.003V23.0909Z" fill="black"/>
<path d="M58.5 43C51.8689 35.1123 46.6887 30.0886 39 34.5C36.0716 31.0806 29.6041 29.1736 25.3163 31.0627C26.327 27.9739 26.6197 24.8095 26.8844 21.9662C27.2813 17.7912 27.6214 14.1258 29.9069 11.6039C30.5871 13.2097 32.051 13.4838 33.7137 12.8696C34.101 13.8617 35.159 13.8049 36.1697 13.4743C36.4057 14.9951 38.9467 14.0695 40.4866 13.5402C41.2518 15.0893 42.6217 15.7221 43.6983 15.5143C44.794 15.3161 45.4837 14.3336 45.4177 13.0961C45.4177 13.0111 45.3986 12.9356 45.3704 12.8692L44.2843 10.1582C44.6148 6.7106 43.5568 3.59311 41.1295 0.901137C41.0159 0.778381 40.8745 0.702914 40.714 0.67427C30.8427 -0.874758 24.4765 0.239625 21.2269 4.07506L16.3435 9.99777C7.44473 14.8725 2.16496 22.9484 0.643746 34.0194C-1.79322 38.5536 2.62737 44.8259 14.955 54.3189C22.1621 59.5519 29.8796 60.8649 37.9 58.2203C38.8539 58.5981 34.5 56 33.5 53.6681C30 48.5 31 43.5 31.5 41.5C32.5 37 36 34 37.5 33L38.1442 33.63C29.0463 43.038 51.5 44 52.5 50.5L58.5 43ZM47.1835 54.2064C47.049 54.5324 46.6798 54.7343 46.2579 54.5938C45.8896 54.4429 45.7196 54.0269 45.8705 53.6681C49.7341 44.3069 40.1083 39.2067 39.7024 38.9891C39.3527 38.8095 39.2204 38.3844 39.4 38.0352C39.5796 37.6856 40.0047 37.5533 40.3539 37.7329C40.458 37.7888 51.5477 43.6358 47.1835 54.2064Z" fill="black"/>
<path d="M43.78 27.6437L42.5688 24.392C42.4324 24.0256 42.6188 23.6182 42.9857 23.4805C43.3508 23.345 43.7595 23.5314 43.8973 23.8974L45.1085 27.1491C45.2449 27.5164 45.0575 27.9238 44.6916 28.0606C44.3274 28.1957 43.9173 28.0129 43.78 27.6437Z" fill="black"/>
<path d="M50.8852 27.9449C50.5133 27.8221 50.3123 27.4211 50.4351 27.0501L51.5253 23.7562C51.6481 23.3843 52.0482 23.1797 52.4201 23.3061C52.792 23.4289 52.9929 23.8298 52.8702 24.2008L51.7799 27.4948C51.6554 27.8712 51.248 28.0676 50.8852 27.9449Z" fill="black"/>
<path d="M55.7828 31.7295C55.5705 31.4012 55.6637 30.9629 55.9933 30.7497L58.9066 28.8624C59.2358 28.651 59.6732 28.7452 59.8864 29.073C60.0987 29.4012 60.0055 29.8395 59.6759 30.0527L56.7626 31.94C56.4297 32.1537 55.9933 32.055 55.7828 31.7295Z" fill="black"/>
<path d="M46.4 31C38.4 31 32 37.5 32 45.4C32 53.4 38.5 59.8 46.4 59.8C54.3 59.8 60.8 53.3 60.8 45.4C60.8 37.5 54.3 31 46.4 31Z" fill="black"/>
</svg>
